<?xml version="1.0" encoding="utf-8"?>
<!-- Generator: Adobe Illustrator 25.2.0, SVG Export Plug-In . SVG Version: 6.00 Build 0)  -->
<svg version="1.1" id="logoIcon" xmlns="http://www.w3.org/2000/svg" xmlns:xlink="http://www.w3.org/1999/xlink" x="0px" y="0px"
	 viewBox="0 0 300 300"  xml:space="preserve">
<style type="text/css">
	.st0{fill:#FFFFFF;}
</style>
<g>
	<g>
		<path class="st0" d="M209.04,104.74c-3.53,8.32-8.35,15.98-14.2,22.72c22.77,2.84,40.46,22.32,40.46,45.85
			c0,25.49-20.73,46.22-46.21,46.22c-15,0-28.36-7.19-36.8-18.29c-2.63-3.44-4.78-7.26-6.36-11.36c-1.7-4.42-2.75-9.16-3-14.11
			h14.01h0.13h36.26l-18.13-31.4l-0.08-0.14l-6.99-12.11l-0.07-0.12c4.04-2.52,7.82-5.45,11.26-8.71
			c6.36-6.02,11.62-13.19,15.44-21.18c2.07-4.34,3.72-8.92,4.88-13.69c1.35-5.45,2.05-11.14,2.05-17C201.68,32.05,169.64,0,130.26,0
			C90.87,0,58.83,32.05,58.83,71.43c0,5.86,0.71,11.55,2.05,17c3.46-0.43,6.98-0.65,10.55-0.65c5.54,0,10.96,0.53,16.21,1.54
			c-2.32-5.5-3.6-11.55-3.6-17.89c0-25.48,20.73-46.21,46.22-46.21c25.48,0,46.22,20.73,46.22,46.21c0,6.34-1.28,12.39-3.6,17.89
			c-1.71,4.05-3.98,7.82-6.72,11.18c-3.04,3.75-6.66,7.02-10.71,9.66l-6.99-12.11l-0.08-0.13l-18.13-31.4l-18.13,31.4l-0.08,0.13
			l-6.99,12.11l-0.08,0.12c-4.16-2.23-8.56-4.05-13.16-5.42c-6.47-1.95-13.32-2.98-20.4-2.98c-1.91,0-3.8,0.08-5.67,0.23
			c-4.92,0.39-9.7,1.28-14.29,2.62C21.77,113.39,0,140.86,0,173.32c0,39.39,32.05,71.43,71.43,71.43c19.15,0,36.58-7.58,49.42-19.9
			c-5.37-7.08-9.66-15.04-12.62-23.6c-8.44,11.11-21.79,18.29-36.8,18.29c-25.48,0-46.22-20.73-46.22-46.22
			c0-23.53,17.69-43.01,40.46-45.85c1.88-0.24,3.81-0.36,5.76-0.36c2.46,0,4.88,0.2,7.23,0.57c4.87,0.76,9.48,2.3,13.72,4.45
			l-6.99,12.11l-0.08,0.14l-18.13,31.4h36.26h0.13h14.01h0.11c0.16,4.84,0.81,9.56,1.9,14.11c2.06,8.68,5.72,16.76,10.66,23.9
			c2.75,4,5.91,7.71,9.41,11.06c12.83,12.32,30.26,19.9,49.42,19.9c39.38,0,71.43-32.04,71.43-71.43
			C260.51,140.86,238.74,113.39,209.04,104.74z"/>
	</g>
	<g>
	</g>
</g>
</svg>
